<mxfile host="app.diagrams.net" modified="2021-09-17T00:54:33.981Z" agent="5.0 (Windows NT 10.0; Win64; x64) AppleWebKit/537.36 (KHTML, like Gecko) Chrome/92.0.4515.107 Safari/537.36 Edg/92.0.902.62" etag="7JgPqEIbivyRIOGA7bZL" version="15.2.9" type="github">
  <diagram id="bi6Mk9muEbl2GmuOiJLS" name="Page-1">
    <mxGraphModel dx="1422" dy="794" grid="1" gridSize="10" guides="1" tooltips="1" connect="1" arrows="1" fold="1" page="1" pageScale="1" pageWidth="827" pageHeight="1169" math="0" shadow="0">
      <root>
        <mxCell id="0" />
        <mxCell id="1" parent="0" />
        <mxCell id="bk6_iSZV6qFZoEKlup8j-2" style="edgeStyle=orthogonalEdgeStyle;rounded=0;orthogonalLoop=1;jettySize=auto;html=1;exitX=0.5;exitY=1;exitDx=0;exitDy=0;" edge="1" parent="1" source="bk6_iSZV6qFZoEKlup8j-1" target="bk6_iSZV6qFZoEKlup8j-3">
          <mxGeometry relative="1" as="geometry">
            <mxPoint x="360" y="140" as="targetPoint" />
          </mxGeometry>
        </mxCell>
        <mxCell id="bk6_iSZV6qFZoEKlup8j-1" value="início" style="ellipse;whiteSpace=wrap;html=1;" vertex="1" parent="1">
          <mxGeometry x="300" y="30" width="120" height="80" as="geometry" />
        </mxCell>
        <mxCell id="bk6_iSZV6qFZoEKlup8j-5" value="" style="edgeStyle=orthogonalEdgeStyle;rounded=0;orthogonalLoop=1;jettySize=auto;html=1;entryX=0.5;entryY=0.2;entryDx=0;entryDy=0;entryPerimeter=0;" edge="1" parent="1" source="bk6_iSZV6qFZoEKlup8j-3" target="bk6_iSZV6qFZoEKlup8j-4">
          <mxGeometry relative="1" as="geometry" />
        </mxCell>
        <mxCell id="bk6_iSZV6qFZoEKlup8j-3" value="&lt;font&gt;Informar Evento&lt;/font&gt;" style="shape=display;whiteSpace=wrap;html=1;" vertex="1" parent="1">
          <mxGeometry x="320" y="130" width="80" height="40" as="geometry" />
        </mxCell>
        <mxCell id="bk6_iSZV6qFZoEKlup8j-9" value="" style="edgeStyle=orthogonalEdgeStyle;rounded=0;orthogonalLoop=1;jettySize=auto;html=1;" edge="1" parent="1" source="bk6_iSZV6qFZoEKlup8j-4" target="bk6_iSZV6qFZoEKlup8j-8">
          <mxGeometry relative="1" as="geometry" />
        </mxCell>
        <mxCell id="bk6_iSZV6qFZoEKlup8j-4" value="Nome_Evento" style="shape=manualInput;whiteSpace=wrap;html=1;" vertex="1" parent="1">
          <mxGeometry x="305" y="200" width="110" height="80" as="geometry" />
        </mxCell>
        <mxCell id="bk6_iSZV6qFZoEKlup8j-11" value="" style="edgeStyle=orthogonalEdgeStyle;rounded=0;orthogonalLoop=1;jettySize=auto;html=1;entryX=0.5;entryY=0.175;entryDx=0;entryDy=0;entryPerimeter=0;" edge="1" parent="1" source="bk6_iSZV6qFZoEKlup8j-8" target="bk6_iSZV6qFZoEKlup8j-10">
          <mxGeometry relative="1" as="geometry" />
        </mxCell>
        <mxCell id="bk6_iSZV6qFZoEKlup8j-8" value="Informar data" style="shape=display;whiteSpace=wrap;html=1;" vertex="1" parent="1">
          <mxGeometry x="320" y="320" width="80" height="40" as="geometry" />
        </mxCell>
        <mxCell id="bk6_iSZV6qFZoEKlup8j-14" value="" style="edgeStyle=orthogonalEdgeStyle;rounded=0;orthogonalLoop=1;jettySize=auto;html=1;" edge="1" parent="1" source="bk6_iSZV6qFZoEKlup8j-10" target="bk6_iSZV6qFZoEKlup8j-13">
          <mxGeometry relative="1" as="geometry" />
        </mxCell>
        <mxCell id="bk6_iSZV6qFZoEKlup8j-10" value="Data_Evento" style="shape=manualInput;whiteSpace=wrap;html=1;" vertex="1" parent="1">
          <mxGeometry x="305" y="380" width="110" height="80" as="geometry" />
        </mxCell>
        <mxCell id="bk6_iSZV6qFZoEKlup8j-21" style="edgeStyle=orthogonalEdgeStyle;rounded=0;orthogonalLoop=1;jettySize=auto;html=1;entryX=0;entryY=0.5;entryDx=0;entryDy=0;entryPerimeter=0;" edge="1" parent="1" source="bk6_iSZV6qFZoEKlup8j-13" target="bk6_iSZV6qFZoEKlup8j-15">
          <mxGeometry relative="1" as="geometry">
            <mxPoint x="470" y="565" as="targetPoint" />
          </mxGeometry>
        </mxCell>
        <mxCell id="bk6_iSZV6qFZoEKlup8j-24" value="" style="edgeStyle=orthogonalEdgeStyle;rounded=0;orthogonalLoop=1;jettySize=auto;html=1;" edge="1" parent="1" source="bk6_iSZV6qFZoEKlup8j-13" target="bk6_iSZV6qFZoEKlup8j-23">
          <mxGeometry relative="1" as="geometry" />
        </mxCell>
        <mxCell id="bk6_iSZV6qFZoEKlup8j-13" value="A data informada é igual&lt;br&gt;&amp;nbsp;a de hoje &lt;br&gt;ou futura?&amp;nbsp;" style="rhombus;whiteSpace=wrap;html=1;" vertex="1" parent="1">
          <mxGeometry x="280" y="495" width="160" height="140" as="geometry" />
        </mxCell>
        <mxCell id="bk6_iSZV6qFZoEKlup8j-25" style="edgeStyle=orthogonalEdgeStyle;rounded=0;orthogonalLoop=1;jettySize=auto;html=1;entryX=1;entryY=0.5;entryDx=0;entryDy=0;" edge="1" parent="1" source="bk6_iSZV6qFZoEKlup8j-15" target="bk6_iSZV6qFZoEKlup8j-10">
          <mxGeometry relative="1" as="geometry">
            <mxPoint x="555" y="410" as="targetPoint" />
            <Array as="points">
              <mxPoint x="555" y="420" />
            </Array>
          </mxGeometry>
        </mxCell>
        <mxCell id="bk6_iSZV6qFZoEKlup8j-15" value="Cadastro nao permitido, informe data posterior" style="shape=display;whiteSpace=wrap;html=1;" vertex="1" parent="1">
          <mxGeometry x="500" y="537.5" width="110" height="55" as="geometry" />
        </mxCell>
        <mxCell id="bk6_iSZV6qFZoEKlup8j-31" value="" style="edgeStyle=orthogonalEdgeStyle;rounded=0;orthogonalLoop=1;jettySize=auto;html=1;entryX=0.5;entryY=0.213;entryDx=0;entryDy=0;entryPerimeter=0;" edge="1" parent="1" source="bk6_iSZV6qFZoEKlup8j-17" target="bk6_iSZV6qFZoEKlup8j-30">
          <mxGeometry relative="1" as="geometry" />
        </mxCell>
        <mxCell id="bk6_iSZV6qFZoEKlup8j-17" value="Informar Nome" style="shape=display;whiteSpace=wrap;html=1;" vertex="1" parent="1">
          <mxGeometry x="65" y="650" width="170" height="40" as="geometry" />
        </mxCell>
        <mxCell id="bk6_iSZV6qFZoEKlup8j-36" value="" style="edgeStyle=orthogonalEdgeStyle;rounded=0;orthogonalLoop=1;jettySize=auto;html=1;" edge="1" parent="1" source="bk6_iSZV6qFZoEKlup8j-18">
          <mxGeometry relative="1" as="geometry">
            <mxPoint x="150" y="940" as="targetPoint" />
            <Array as="points">
              <mxPoint x="150" y="860" />
              <mxPoint x="150" y="860" />
            </Array>
          </mxGeometry>
        </mxCell>
        <mxCell id="bk6_iSZV6qFZoEKlup8j-18" value="Informar Idade" style="shape=display;whiteSpace=wrap;html=1;" vertex="1" parent="1">
          <mxGeometry x="70" y="850" width="160" height="40" as="geometry" />
        </mxCell>
        <mxCell id="bk6_iSZV6qFZoEKlup8j-22" value="Não" style="text;html=1;align=center;verticalAlign=middle;resizable=0;points=[];autosize=1;strokeColor=none;fillColor=none;" vertex="1" parent="1">
          <mxGeometry x="450" y="540" width="40" height="20" as="geometry" />
        </mxCell>
        <mxCell id="bk6_iSZV6qFZoEKlup8j-29" value="" style="edgeStyle=orthogonalEdgeStyle;rounded=0;orthogonalLoop=1;jettySize=auto;html=1;" edge="1" parent="1" source="bk6_iSZV6qFZoEKlup8j-23" target="bk6_iSZV6qFZoEKlup8j-17">
          <mxGeometry relative="1" as="geometry" />
        </mxCell>
        <mxCell id="bk6_iSZV6qFZoEKlup8j-23" value="Cadastrar Evento" style="whiteSpace=wrap;html=1;" vertex="1" parent="1">
          <mxGeometry x="90" y="535" width="120" height="60" as="geometry" />
        </mxCell>
        <mxCell id="bk6_iSZV6qFZoEKlup8j-26" value="Sim&lt;br&gt;" style="text;html=1;align=center;verticalAlign=middle;resizable=0;points=[];autosize=1;strokeColor=none;fillColor=none;" vertex="1" parent="1">
          <mxGeometry x="220" y="537.5" width="40" height="20" as="geometry" />
        </mxCell>
        <mxCell id="bk6_iSZV6qFZoEKlup8j-33" value="" style="edgeStyle=orthogonalEdgeStyle;rounded=0;orthogonalLoop=1;jettySize=auto;html=1;" edge="1" parent="1" source="bk6_iSZV6qFZoEKlup8j-30" target="bk6_iSZV6qFZoEKlup8j-18">
          <mxGeometry relative="1" as="geometry" />
        </mxCell>
        <mxCell id="bk6_iSZV6qFZoEKlup8j-30" value="Nome_Participante" style="shape=manualInput;whiteSpace=wrap;html=1;" vertex="1" parent="1">
          <mxGeometry x="90" y="730" width="120" height="80" as="geometry" />
        </mxCell>
        <mxCell id="bk6_iSZV6qFZoEKlup8j-38" value="" style="edgeStyle=orthogonalEdgeStyle;rounded=0;orthogonalLoop=1;jettySize=auto;html=1;" edge="1" parent="1" source="bk6_iSZV6qFZoEKlup8j-34" target="bk6_iSZV6qFZoEKlup8j-37">
          <mxGeometry relative="1" as="geometry" />
        </mxCell>
        <mxCell id="bk6_iSZV6qFZoEKlup8j-34" value="Idade_Participante" style="shape=manualInput;whiteSpace=wrap;html=1;" vertex="1" parent="1">
          <mxGeometry x="80" y="930" width="140" height="80" as="geometry" />
        </mxCell>
        <mxCell id="bk6_iSZV6qFZoEKlup8j-40" value="" style="edgeStyle=orthogonalEdgeStyle;rounded=0;orthogonalLoop=1;jettySize=auto;html=1;" edge="1" parent="1" source="bk6_iSZV6qFZoEKlup8j-37" target="bk6_iSZV6qFZoEKlup8j-39">
          <mxGeometry relative="1" as="geometry" />
        </mxCell>
        <mxCell id="bk6_iSZV6qFZoEKlup8j-43" value="" style="edgeStyle=orthogonalEdgeStyle;rounded=0;orthogonalLoop=1;jettySize=auto;html=1;" edge="1" parent="1" source="bk6_iSZV6qFZoEKlup8j-37">
          <mxGeometry relative="1" as="geometry">
            <mxPoint x="150" y="1270" as="targetPoint" />
          </mxGeometry>
        </mxCell>
        <mxCell id="bk6_iSZV6qFZoEKlup8j-37" value="Idade do participante = ou + que 18?" style="rhombus;whiteSpace=wrap;html=1;" vertex="1" parent="1">
          <mxGeometry x="65" y="1070" width="170" height="140" as="geometry" />
        </mxCell>
        <mxCell id="bk6_iSZV6qFZoEKlup8j-60" style="edgeStyle=orthogonalEdgeStyle;rounded=0;orthogonalLoop=1;jettySize=auto;html=1;" edge="1" parent="1" source="bk6_iSZV6qFZoEKlup8j-39" target="bk6_iSZV6qFZoEKlup8j-48">
          <mxGeometry relative="1" as="geometry" />
        </mxCell>
        <mxCell id="bk6_iSZV6qFZoEKlup8j-39" value="Cadastro nao permitido, Idade não permitida" style="shape=display;whiteSpace=wrap;html=1;" vertex="1" parent="1">
          <mxGeometry x="280" y="1112.5" width="110" height="55" as="geometry" />
        </mxCell>
        <mxCell id="bk6_iSZV6qFZoEKlup8j-41" value="Nao" style="text;html=1;align=center;verticalAlign=middle;resizable=0;points=[];autosize=1;strokeColor=none;fillColor=none;" vertex="1" parent="1">
          <mxGeometry x="235" y="1110" width="40" height="20" as="geometry" />
        </mxCell>
        <mxCell id="bk6_iSZV6qFZoEKlup8j-46" value="Sim" style="text;html=1;align=center;verticalAlign=middle;resizable=0;points=[];autosize=1;strokeColor=none;fillColor=none;" vertex="1" parent="1">
          <mxGeometry x="160" y="1220" width="40" height="20" as="geometry" />
        </mxCell>
        <mxCell id="bk6_iSZV6qFZoEKlup8j-48" value="Fim" style="ellipse;whiteSpace=wrap;html=1;" vertex="1" parent="1">
          <mxGeometry x="600" y="1465" width="120" height="60" as="geometry" />
        </mxCell>
        <mxCell id="bk6_iSZV6qFZoEKlup8j-51" value="" style="edgeStyle=orthogonalEdgeStyle;rounded=0;orthogonalLoop=1;jettySize=auto;html=1;" edge="1" parent="1" source="bk6_iSZV6qFZoEKlup8j-49" target="bk6_iSZV6qFZoEKlup8j-50">
          <mxGeometry relative="1" as="geometry" />
        </mxCell>
        <mxCell id="bk6_iSZV6qFZoEKlup8j-49" value="Analizar_lista_participantes" style="shape=manualInput;whiteSpace=wrap;html=1;" vertex="1" parent="1">
          <mxGeometry x="60" y="1260" width="175" height="80" as="geometry" />
        </mxCell>
        <mxCell id="bk6_iSZV6qFZoEKlup8j-52" value="" style="edgeStyle=orthogonalEdgeStyle;rounded=0;orthogonalLoop=1;jettySize=auto;html=1;entryX=0;entryY=0.5;entryDx=0;entryDy=0;" edge="1" parent="1" source="bk6_iSZV6qFZoEKlup8j-50">
          <mxGeometry relative="1" as="geometry">
            <mxPoint x="340" y="1495" as="targetPoint" />
          </mxGeometry>
        </mxCell>
        <mxCell id="bk6_iSZV6qFZoEKlup8j-55" value="" style="edgeStyle=orthogonalEdgeStyle;rounded=0;orthogonalLoop=1;jettySize=auto;html=1;" edge="1" parent="1" source="bk6_iSZV6qFZoEKlup8j-50">
          <mxGeometry relative="1" as="geometry">
            <mxPoint x="147.5" y="1630" as="targetPoint" />
          </mxGeometry>
        </mxCell>
        <mxCell id="bk6_iSZV6qFZoEKlup8j-50" value="Numero do cadastro = ou &amp;lt; 100?" style="rhombus;whiteSpace=wrap;html=1;" vertex="1" parent="1">
          <mxGeometry x="73.75" y="1420" width="147.5" height="150" as="geometry" />
        </mxCell>
        <mxCell id="bk6_iSZV6qFZoEKlup8j-58" style="edgeStyle=orthogonalEdgeStyle;rounded=0;orthogonalLoop=1;jettySize=auto;html=1;entryX=0.5;entryY=1;entryDx=0;entryDy=0;exitX=1;exitY=0.5;exitDx=0;exitDy=0;" edge="1" parent="1" source="bk6_iSZV6qFZoEKlup8j-61" target="bk6_iSZV6qFZoEKlup8j-48">
          <mxGeometry relative="1" as="geometry">
            <mxPoint x="670" y="1661.25" as="targetPoint" />
            <mxPoint x="232.5" y="1661.3000000000002" as="sourcePoint" />
          </mxGeometry>
        </mxCell>
        <mxCell id="bk6_iSZV6qFZoEKlup8j-54" value="Sim" style="text;html=1;align=center;verticalAlign=middle;resizable=0;points=[];autosize=1;strokeColor=none;fillColor=none;" vertex="1" parent="1">
          <mxGeometry x="160" y="1580" width="40" height="20" as="geometry" />
        </mxCell>
        <mxCell id="bk6_iSZV6qFZoEKlup8j-56" value="Não" style="text;html=1;align=center;verticalAlign=middle;resizable=0;points=[];autosize=1;strokeColor=none;fillColor=none;" vertex="1" parent="1">
          <mxGeometry x="260" y="1460" width="40" height="20" as="geometry" />
        </mxCell>
        <mxCell id="bk6_iSZV6qFZoEKlup8j-59" style="edgeStyle=orthogonalEdgeStyle;rounded=0;orthogonalLoop=1;jettySize=auto;html=1;exitX=1;exitY=0.5;exitDx=0;exitDy=0;exitPerimeter=0;" edge="1" parent="1" source="bk6_iSZV6qFZoEKlup8j-62" target="bk6_iSZV6qFZoEKlup8j-48">
          <mxGeometry relative="1" as="geometry">
            <mxPoint x="530" y="1495" as="sourcePoint" />
          </mxGeometry>
        </mxCell>
        <mxCell id="bk6_iSZV6qFZoEKlup8j-61" value="Cadastrar Participante" style="whiteSpace=wrap;html=1;" vertex="1" parent="1">
          <mxGeometry x="87.5" y="1630" width="120" height="60" as="geometry" />
        </mxCell>
        <mxCell id="bk6_iSZV6qFZoEKlup8j-62" value="Cadastro nao permitido, quantidade de cadastros excedida" style="shape=display;whiteSpace=wrap;html=1;" vertex="1" parent="1">
          <mxGeometry x="340" y="1463.75" width="170" height="62.5" as="geometry" />
        </mxCell>
      </root>
    </mxGraphModel>
  </diagram>
</mxfile>
